PathFileType  4	(X/Y/Z) C:\Users\antoi\Documents\MyRepositories\mobilecap\ResultsAnalysis
DataRate	CameraRate	NumFrames	NumMarkers	Units	OrigDataRate	OrigDataStartFrame	OrigNumFrames
100.0	100.0	7	51	mm	100.0	1	136
Frame#	Time	r_knee			r_shank_antsup			r_ankle			r_calc			r_5meta			r_toe			L_knee			L_shank_antsup			L_ankle			L_calc			L_5meta			L_toe			r_sh2			r_sh3			r_sh4			L_sh2			L_sh3			r_thigh1			r_thigh2			r_thigh3			r_thigh4			r_thigh5			L_thigh1			L_thigh2			L_thigh3			L_thigh4			r.ASIS			r.PSIS			L.ASIS			L.PSIS			C7			R_Shoulder			L_Shoulder			R_Sternum			L_Sternum			R_humerus			R_elbow_med			R_elbow_lat			R_forearm			R_wrist_radius			R_wrist_ulna			L_humerus			L_elbow_med			L_elbow_lat			L_forearm			L_wrist_radius			L_wrist_ulna			R_HJC			L_HJC			R_HJC_reg			L_HJC_reg			
		X1	Y1	Z1	X2	Y2	Z2	X3	Y3	Z3	X4	Y4	Z4	X5	Y5	Z5	X6	Y6	Z6	X7	Y7	Z7	X8	Y8	Z8	X9	Y9	Z9	X10	Y10	Z10	X11	Y11	Z11	X12	Y12	Z12	X13	Y13	Z13	X14	Y14	Z14	X15	Y15	Z15	X16	Y16	Z16	X17	Y17	Z17	X18	Y18	Z18	X19	Y19	Z19	X20	Y20	Z20	X21	Y21	Z21	X22	Y22	Z22	X23	Y23	Z23	X24	Y24	Z24	X25	Y25	Z25	X26	Y26	Z26	X27	Y27	Z27	X28	Y28	Z28	X29	Y29	Z29	X30	Y30	Z30	X31	Y31	Z31	X32	Y32	Z32	X33	Y33	Z33	X34	Y34	Z34	X35	Y35	Z35	X36	Y36	Z36	X37	Y37	Z37	X38	Y38	Z38	X39	Y39	Z39	X40	Y40	Z40	X41	Y41	Z41	X42	Y42	Z42	X43	Y43	Z43	X44	Y44	Z44	X45	Y45	Z45	X46	Y46	Z46	X47	Y47	Z47	X48	Y48	Z48	X49	Y49	Z49	X50	Y50	Z50	X51	Y51	Z51	

1	0.00000000	-29.84625	544.44465	-149.48445	37.92590	437.12286	-156.92800	65.70685	93.60081	-172.03754	20.81523	45.35072	-226.78238	217.90788	72.42937	-122.34237	240.56406	120.33515	-185.94375	-418.15081	529.23678	-460.83396	-426.66057	414.84449	-435.86192	-658.19799	142.55441	-420.28941	-732.67586	137.39612	-376.40401	-543.22708	33.87687	-433.44829	-514.89981	49.18241	-361.69996	78.33036	332.14340	-178.45894	-20.93578	405.50006	-112.93788	25.94503	297.25578	-120.64539	-498.75421	445.15662	-483.40355	-529.63718	328.13713	-486.20701	-45.83402	792.43632	-171.91042	2.00951	693.13147	-186.92906	-8.67986	655.72387	-129.38391	-112.02769	748.83380	-91.16317	-61.84489	644.73714	-114.31450	-251.01759	739.27825	-489.65212	-289.00227	609.95495	-472.48154	-357.22734	765.13942	-516.90632	-397.06782	634.56820	-489.57122	-161.89894	1005.28511	-162.86893	-368.99410	1029.42562	-246.73034	-162.36670	995.22810	-433.67114	-370.85408	1036.53849	-343.36916	-313.62354	1528.58916	-295.18288	-263.20751	1447.60318	-104.96318	-214.88749	1487.32257	-463.92783	-174.14215	1451.38091	-256.26590	-170.91022	1452.07512	-303.64760	-274.63212	1274.55868	-40.52621	-365.32104	1063.59516	-99.89400	-355.76032	1084.26150	-19.54832	-279.70722	929.29836	4.31618	-262.28186	807.53565	16.77943	-298.51595	803.28653	40.22561	-175.48302	1324.47927	-546.01346	-218.17737	1096.32464	-531.63023	-175.16813	1125.36023	-593.78808	-32.94382	1061.81149	-522.73500	60.86807	987.90475	-514.00874	49.09007	965.74347	-554.70269	-242.96607	922.09062	-197.47393	-242.99982	906.83766	-410.31800	-228.43837	906.69472	-206.87472	-231.87000	919.82236	-385.21307	
2	0.01000000	-17.23581	542.36733	-147.75099	51.54360	435.31735	-156.07575	73.17202	92.25136	-171.79484	25.49320	48.53349	-227.35071	222.30223	63.00842	-123.33343	248.29076	109.65241	-186.84450	-402.58353	528.03469	-459.64992	-413.46186	413.31458	-435.36828	-653.05783	148.03602	-419.87582	-727.10102	145.53782	-375.33477	-542.32285	34.00690	-433.11204	-513.44358	48.71365	-361.69266	90.36095	329.68848	-177.71484	-7.70493	404.32017	-112.56971	37.77403	295.54053	-120.47571	-485.15297	446.15880	-482.05074	-519.69768	330.15092	-485.37284	-29.26282	789.48914	-166.15824	16.46910	689.00988	-182.01691	3.82551	651.04958	-125.74411	-99.01374	745.87402	-88.75784	-50.29324	641.30258	-112.03932	-235.67677	738.25322	-488.82581	-273.65781	608.48416	-472.38262	-342.02819	763.96420	-514.20708	-381.81271	633.42551	-487.37002	-144.49712	1004.96016	-162.37273	-352.48413	1028.47245	-243.93753	-146.56601	994.36797	-432.90181	-354.53973	1034.56046	-340.47661	-299.58061	1527.54901	-292.59154	-249.12535	1446.18827	-102.48395	-200.87935	1486.52459	-461.46654	-159.86141	1450.79289	-253.83826	-156.48167	1451.54435	-301.27061	-260.49013	1273.00501	-38.35035	-350.32643	1061.86392	-98.70709	-341.24115	1082.48719	-18.27366	-265.31639	927.44178	5.36112	-247.88988	805.66994	17.55602	-284.02570	801.52511	41.08380	-162.35018	1323.03491	-543.28801	-207.41688	1095.33672	-529.66543	-164.52155	1123.95227	-591.80473	-23.05592	1057.74164	-521.01597	69.42541	982.13835	-512.72176	56.82121	960.38749	-553.61953	-225.20285	921.42193	-195.70593	-226.95166	905.61903	-408.48707	-211.77874	907.24482	-205.20324	-215.57478	918.48053	-383.48815	
3	0.02000000	-4.26664	540.79775	-145.99792	65.22348	433.70153	-155.41760	80.11322	91.11614	-171.60696	29.80548	51.56231	-227.83486	226.30673	54.42594	-124.21233	255.44103	99.57093	-187.75631	-386.41316	526.81235	-458.64260	-399.72431	411.80986	-435.13459	-647.32715	153.68723	-419.56433	-720.86781	154.07401	-374.27621	-541.32736	34.16463	-432.79891	-511.87519	48.17367	-361.66996	102.26815	327.41745	-177.20280	5.82827	403.48291	-112.10729	49.63308	294.10213	-120.23805	-470.98398	447.23777	-480.80184	-509.24792	332.33193	-484.68573	-12.79474	787.15666	-160.42687	31.04383	685.65207	-177.15107	16.60849	647.08048	-122.09799	-85.81906	743.44700	-86.21640	-38.35532	638.47988	-109.66407	-220.03052	737.36771	-487.98650	-257.78009	607.11144	-472.28621	-326.61829	762.81264	-511.53590	-366.05740	632.19279	-485.27299	-127.28005	1004.86930	-161.82742	-336.06832	1027.82366	-241.32595	-130.96897	993.54547	-432.10605	-338.22892	1032.87564	-337.77694	-285.52155	1526.74243	-289.97209	-234.97514	1445.02478	-99.99054	-186.91249	1485.99901	-459.02205	-145.55900	1450.46880	-251.40536	-142.04916	1451.28769	-298.88772	-246.26584	1271.68672	-36.17884	-335.24831	1060.39203	-97.52049	-326.61945	1080.95308	-17.00107	-250.78402	925.84351	6.41571	-233.32748	804.06752	18.33445	-269.39669	799.99334	41.91966	-149.32348	1321.84401	-540.64361	-196.75889	1094.63861	-527.57375	-153.93460	1122.78616	-589.72161	-13.27549	1053.77144	-519.34756	77.72513	976.35152	-511.59461	64.28300	955.05113	-552.69223	-207.69368	921.02285	-193.93268	-211.05819	904.51674	-406.63733	-195.40148	907.95497	-203.53728	-199.39551	917.27820	-381.78903	
4	0.03000000	9.32091	540.09584	-144.22028	78.93881	432.39637	-155.03220	86.11817	90.34589	-171.51767	33.46237	54.31059	-228.18144	229.61909	47.34383	-124.89098	261.55862	90.60816	-188.67933	-369.11489	525.52577	-457.96400	-384.96966	410.34774	-435.38971	-640.47284	159.65828	-419.44423	-713.38187	163.34274	-373.25854	-540.15598	34.41179	-432.52872	-510.10163	47.55172	-361.61950	113.88885	325.44928	-177.03082	19.75168	403.20774	-111.48851	61.41977	293.11863	-119.88285	-455.74487	448.44607	-479.75127	-497.82506	334.80882	-484.27946	3.52523	785.93543	-154.81366	45.86017	683.66646	-172.43029	29.93128	644.39962	-118.49005	-72.26558	741.98373	-83.48835	-25.68735	636.75863	-107.15190	-203.82208	736.72741	-487.12863	-240.90963	605.90749	-472.21441	-310.80021	761.66723	-508.93082	-349.37689	630.77142	-483.39198	-110.41118	1005.22658	-161.16234	-319.83146	1027.70854	-239.04154	-115.64935	992.84075	-431.22803	-321.95587	1031.72429	-335.43905	-271.43064	1526.35013	-287.30739	-220.70256	1444.31568	-97.47567	-173.00717	1485.96735	-456.60594	-131.21838	1450.60965	-248.96763	-127.60332	1451.51307	-296.49554	-231.88544	1270.79864	-34.01705	-320.02109	1059.39388	-96.33213	-311.81423	1079.85705	-15.72995	-235.99118	924.71587	7.48460	-218.45198	802.94559	19.11900	-254.51240	798.88191	42.72065	-136.49051	1321.12016	-538.16144	-186.28058	1094.47665	-525.24361	-143.45497	1122.06668	-587.45852	-3.70881	1049.98051	-517.77752	85.55184	970.54104	-510.76183	71.25060	949.76194	-552.05002	-190.63857	921.12151	-192.14092	-195.38027	903.65915	-404.74697	-179.46334	908.95633	-201.85405	-183.39543	916.36648	-380.10408	
5	0.04000000	23.58389	540.37232	-142.43279	92.52201	431.41814	-154.83425	90.96212	89.98915	-171.54459	36.30440	56.69593	-228.37949	232.08203	42.10953	-125.32236	266.38936	83.11722	-189.59476	-350.31557	524.10105	-457.72342	-368.83593	408.93235	-436.29266	-632.07048	166.06746	-419.57597	-704.16553	173.57818	-372.33855	-538.72456	34.87626	-432.31536	-508.05046	46.94036	-361.53885	125.00691	323.80669	-177.12864	33.82865	403.52298	-110.69615	72.84830	292.61869	-119.38611	-439.05119	449.79142	-478.97960	-485.05259	337.63778	-484.25766	19.70453	786.08294	-149.51994	61.00243	683.35325	-168.02248	43.96554	643.33832	-115.02926	-58.21944	741.72157	-80.63807	-12.07859	636.39483	-104.54808	-186.89245	736.38360	-486.26066	-222.73339	604.90244	-472.22005	-294.41392	760.45316	-506.44281	-331.48894	629.06003	-481.84573	-94.01351	1006.19816	-160.28554	-303.84586	1028.23417	-237.16186	-100.52860	992.37723	-430.17477	-305.80577	1031.25218	-333.57701	-257.30213	1526.46728	-284.59920	-206.28347	1444.18200	-94.94553	-159.16304	1486.56265	-454.22410	-116.84001	1451.31341	-246.53716	-113.13738	1452.31993	-294.09868	-217.30129	1270.46679	-31.87273	-304.61988	1059.00630	-95.13595	-296.78750	1079.32438	-14.45495	-220.86526	924.19367	8.56580	-203.17348	802.44384	19.91652	-239.29706	798.31545	43.48785	-123.91365	1321.00549	-535.91434	-176.02200	1095.01706	-522.59703	-133.11589	1121.93269	-584.97117	5.53779	1046.41844	-516.35121	92.75827	964.73393	-510.31781	77.56919	944.56288	-551.77951	-174.15553	921.86896	-190.30324	-179.86938	903.17355	-402.78684	-163.94871	910.32779	-200.09065	-167.58089	915.89517	-378.36634	
6	0.05000000	38.32653	541.47101	-140.66292	105.68891	430.68386	-154.61751	94.62704	89.99236	-171.66899	38.32104	58.68222	-228.45190	233.69214	38.70326	-125.50426	269.90286	77.22877	-190.46485	-329.81147	522.44314	-457.98289	-351.08878	407.54521	-437.89656	-621.82222	173.01429	-419.97843	-692.86760	184.90986	-371.59423	-536.93747	35.77717	-432.16710	-505.65558	46.54747	-361.44450	135.38659	322.42315	-177.29054	47.56156	404.27663	-109.74752	83.52163	292.49373	-118.74513	-420.63336	451.22558	-478.55625	-470.63953	340.78729	-484.67740	35.75888	787.53181	-144.80975	76.43447	684.60290	-164.13134	58.70205	643.87485	-111.85732	-43.63805	742.65027	-77.80326	2.45588	637.34403	-101.94824	-169.18891	736.33007	-485.40774	-203.10421	604.08830	-472.38520	-277.34580	759.05095	-504.12793	-312.26336	626.96680	-480.74923	-78.13435	1007.87745	-159.10530	-288.15046	1029.38164	-235.67338	-85.45279	992.27496	-428.82712	-289.89392	1031.49372	-332.21984	-243.13580	1527.10173	-281.86643	-191.71636	1444.65563	-92.42003	-145.36022	1487.81857	-451.87725	-102.43454	1452.57195	-244.13830	-98.64434	1453.69591	-291.71244	-202.49215	1270.74142	-29.75376	-289.05868	1059.27915	-93.91997	-281.53684	1079.39890	-13.16353	-205.37583	924.32732	9.65507	-187.44628	802.61757	20.73563	-223.70164	798.34624	44.23291	-111.61822	1321.55901	-533.94718	-165.97693	1096.33028	-519.59955	-122.93078	1122.44594	-582.25500	14.36707	1043.10238	-515.11210	99.27495	958.98260	-510.31557	83.15887	939.50851	-551.92367	-158.26490	923.32257	-188.37131	-164.41635	903.14828	-400.71058	-148.69451	912.08470	-198.15040	-151.92606	915.97801	-376.45590	
7	0.06000000	53.12813	543.04103	-138.94635	118.11403	430.05020	-154.17078	97.26193	90.23442	-171.84497	39.62912	60.26908	-228.44014	234.56510	36.80098	-125.47237	272.25399	72.84912	-191.24474	-307.56643	520.46568	-458.75971	-331.62297	406.14243	-440.12527	-609.56147	180.59000	-420.62373	-679.25483	197.37227	-371.10593	-534.67491	37.42003	-432.08861	-502.83028	46.66747	-361.37572	144.82619	321.17838	-177.29392	60.38200	405.20985	-108.68241	93.07719	292.55508	-117.97945	-400.32801	452.65199	-478.54049	-454.38087	344.14914	-485.53375	51.65389	789.89383	-140.92612	91.94834	686.91407	-160.93523	73.89665	645.62181	-109.10295	-28.60957	744.52140	-75.12627	17.62763	639.27508	-99.45730	-150.75711	736.51913	-484.61064	-182.03640	603.43804	-472.80312	-259.55182	757.33887	-502.03580	-291.70656	624.43198	-480.19258	-62.73046	1010.26413	-157.56770	-272.74146	1031.03530	-234.47009	-70.32548	992.58902	-427.07185	-274.33342	1032.37849	-331.29245	-228.93755	1528.19495	-279.13876	-177.01171	1445.69311	-89.92954	-131.57442	1489.67969	-449.56493	-88.01608	1454.29592	-241.80551	-84.12229	1455.54293	-289.36431	-187.46129	1271.60486	-27.66601	-273.38223	1060.18407	-92.66558	-266.08197	1080.05177	-11.83543	-189.52621	925.09450	10.75178	-171.25500	803.44845	21.58406	-207.68878	798.96288	44.97032	-99.58887	1322.76060	-532.25719	-156.09997	1098.39342	-516.26392	-112.89814	1123.59336	-579.34193	22.70472	1040.02421	-514.10153	105.09651	953.35087	-510.77441	87.99920	934.65677	-552.49098	-142.90346	925.44392	-186.28060	-148.94434	903.59307	-398.45474	-133.48216	914.18081	-195.93252	-136.42287	916.65334	-374.23013	
